<svg{{ with .size }} height="{{ . }}" {{ end }} viewBox="0 0 1017 1017" version="1.1" width="{{ .size }}" xml:space="preserve" style="fill-rule:evenodd;clip-rule:evenodd;" xmlns="http://www.w3.org/2000/svg" xmlns:xlink="http://www.w3.org/1999/xlink" xml:space="preserve" xmlns:serif="http://www.serif.com/" style="fill-rule:evenodd;clip-rule:evenodd;stroke-linejoin:round;stroke-miterlimit:1.41421;">
    <g transform="matrix(4.16667,0,0,4.16667,508.3,1016.6)">
        <g id="art">
            <path d="M0,-243.984C-67.374,-243.984 -121.992,-189.366 -121.992,-121.992C-121.992,-70.31 -89.838,-26.168 -44.458,-8.393C-45.524,-18.045 -46.487,-32.85 -44.034,-43.387C-41.817,-52.908 -29.729,-104.025 -29.729,-104.025C-29.729,-104.025 -33.378,-111.333 -33.378,-122.137C-33.378,-139.1 -23.546,-151.764 -11.304,-151.764C-0.896,-151.764 4.131,-143.95 4.131,-134.58C4.131,-124.113 -2.533,-108.464 -5.973,-93.962C-8.846,-81.82 0.117,-71.918 12.093,-71.918C33.775,-71.918 50.441,-94.78 50.441,-127.781C50.441,-156.99 29.454,-177.412 -0.515,-177.412C-35.226,-177.412 -55.6,-151.377 -55.6,-124.471C-55.6,-113.986 -51.561,-102.743 -46.521,-96.631C-45.525,-95.423 -45.378,-94.365 -45.675,-93.132C-46.601,-89.279 -48.659,-80.993 -49.063,-79.297C-49.596,-77.064 -50.832,-76.59 -53.143,-77.666C-68.38,-84.758 -77.905,-107.034 -77.905,-124.926C-77.905,-163.408 -49.945,-198.749 2.7,-198.749C45.018,-198.749 77.906,-168.593 77.906,-128.292C77.906,-86.249 51.396,-52.413 14.603,-52.413C2.241,-52.413 -9.38,-58.835 -13.358,-66.421C-13.358,-66.421 -19.475,-43.129 -20.958,-37.421C-23.713,-26.825 -31.147,-13.543 -36.12,-5.44C-24.706,-1.906 -12.576,0 0,0C67.375,0 121.993,-54.618 121.993,-121.992C121.993,-189.366 67.375,-243.984 0,-243.984" style="fill:white;fill-rule:nonzero;"/>
        </g>
    </g>
</svg>
